<svg width="52" height="48" viewBox="0 0 52 48" fill="none" xmlns="http://www.w3.org/2000/svg">
<path d="M51.8864 46.61L26.8403 0.496293C26.7589 0.346268 26.638 0.220907 26.4905 0.133525C26.3429 0.0461418 26.1743 0 26.0024 0C25.8305 0 25.6618 0.0461418 25.5143 0.133525C25.3668 0.220907 25.2458 0.346268 25.1644 0.496293L0.113559 46.61C0.0355533 46.7537 -0.00349054 46.915 0.000244956 47.0782C0.00398045 47.2414 0.0503674 47.4008 0.134871 47.5409C0.219374 47.6809 0.339102 47.7969 0.482349 47.8774C0.625596 47.9578 0.78746 48.0001 0.952116 48H51.0538C51.218 47.9991 51.3791 47.9561 51.5215 47.8752C51.664 47.7943 51.7829 47.6783 51.8667 47.5383C51.9505 47.3984 51.9963 47.2394 51.9998 47.0767C52.0033 46.9141 51.9642 46.7533 51.8864 46.61ZM28.3807 42.3314H23.6229V37.6155H28.3807V42.3314ZM27.9049 34.7954H24.0987L23.385 15.9316H28.6186L27.9049 34.7954Z" fill="black"/>
</svg>
